<svg xmlns="http://www.w3.org/2000/svg" width="302" height="302" viewBox="0 0 302 302">
  <g id="history_hero_image" data-name="history hero image" transform="translate(-962 -250)">
    <g id="Ellipse_306" data-name="Ellipse 306" transform="translate(962 250)" fill="none" stroke="#ffbc21" stroke-width="52">
      <circle cx="151" cy="151" r="151" stroke="none"/>
      <circle cx="151" cy="151" r="125" fill="none"/>
    </g>
    <g id="Layer_2" data-name="Layer 2" transform="translate(1078 329.034)">
      <g id="Layer_1" data-name="Layer 1">
        <g id="New_Symbol_3" data-name="New Symbol 3">
          <path id="Path_113" data-name="Path 113" d="M44.6,27.24c2.14-.76,4.24-1.56,6.94-1.18a2.94,2.94,0,0,1,2.13,1.49,3.65,3.65,0,0,1,.09,2.69,22.939,22.939,0,0,1-1.58,3.33c-2.09,3.9-4.19,7.84-6.4,11.7C41.43,53,36.74,60.58,32,68.09,22.25,83,12.08,97.55,0,110.92,7.11,94.36,16.17,79.05,25.69,64c4.87-7.43,9.83-14.82,15.16-22,2.63-3.6,5.37-7.11,8.21-10.61.73-.91,1.55-1.74,1.92-2.32.26-.73.65-.42-.11-1-1.63-.77-4.08-.85-6.27-.86" fill="#e37eb3"/>
          <path id="Path_114" data-name="Path 114" d="M38,.24a22.74,22.74,0,0,1,3.15,1c2.67,1,5.52,2.61,6.29,5.59.85,3.28.92,12.05-2.63,14-3.33,1.84-8.26-2.61-10.19-5a15.78,15.78,0,0,1-3.74-11.6A4.5,4.5,0,0,1,32.72.83,6.93,6.93,0,0,1,38,.24Z" fill="#9762a4"/>
          <path id="Path_115" data-name="Path 115" d="M38.75,108S28.1,136.27,26.81,144.34c0,0,.49-25.51,2.82-33.62Z" fill="#9762a4"/>
          <path id="Path_116" data-name="Path 116" d="M21.61,115l6.52-3.65s-2.36,10.17-2.32,18.48c0,0-4.93-10.81-4.2-14.83" fill="#9762a4"/>
          <path id="Path_117" data-name="Path 117" d="M39.27,23.28S25.9,17.05,22.11,19.8s9.65,27.81,9.65,27.81h.33S21.78,23.52,39.27,23.28" fill="#9762a4"/>
          <path id="Path_118" data-name="Path 118" d="M41,57.49s23.2,40.31-6.74,48L1.58,114.13S56,88.93,41,57.49" fill="#ba94dd"/>
        </g>
      </g>
    </g>
  </g>
</svg>
